<?xml version="1.0" standalone="no"?>
<!DOCTYPE svg PUBLIC "-//W3C//DTD SVG 20010904//EN"
 "http://www.w3.org/TR/2001/REC-SVG-20010904/DTD/svg10.dtd">
<svg version="1.0" xmlns="http://www.w3.org/2000/svg"
 width="1261.000000pt" height="198.000000pt" viewBox="0 0 1261.000000 198.000000"
 preserveAspectRatio="xMidYMid meet">

<g transform="translate(0.000000,198.000000) scale(0.100000,-0.100000)"
fill="#000000" stroke="none">
<path d="M11387 1904 l-168 -55 3 -642 c3 -625 4 -644 25 -705 32 -94 97 -197
177 -277 190 -193 511 -240 770 -114 155 75 286 239 342 425 24 79 24 245 0
333 -68 251 -265 440 -505 485 -140 27 -275 16 -393 -30 -34 -13 -64 -24 -67
-24 -3 0 -5 148 -3 330 1 181 -1 330 -5 329 -4 0 -84 -25 -176 -55z m629 -909
c71 -31 128 -86 161 -153 23 -48 28 -70 28 -137 0 -102 -27 -166 -96 -230 -72
-67 -127 -89 -224 -90 -69 0 -88 4 -139 30 -111 56 -176 164 -176 290 0 95 28
161 98 227 100 96 225 118 348 63z"/>
<path d="M7800 1888 c-85 -28 -159 -54 -165 -58 -7 -6 -9 -312 -7 -894 l2
-886 153 0 c83 0 162 3 175 6 l22 6 0 939 c0 745 -3 939 -12 939 -7 -1 -83
-24 -168 -52z"/>
<path d="M825 1894 c-253 -52 -428 -156 -577 -343 -229 -286 -269 -669 -106
-996 71 -142 182 -272 303 -355 68 -47 201 -107 290 -132 67 -18 106 -22 240
-22 134 0 173 4 240 22 89 25 222 85 289 131 87 60 236 212 236 241 0 8 -170
128 -253 179 l-38 23 -40 -46 c-57 -64 -154 -131 -234 -161 -81 -31 -221 -43
-310 -26 -145 26 -301 138 -379 271 -59 101 -77 168 -78 289 -1 171 50 288
179 412 111 108 236 159 388 159 155 0 295 -60 411 -176 l71 -72 146 100 c170
117 166 98 49 220 -136 143 -309 237 -500 274 -67 13 -277 18 -327 8z"/>
<path d="M8222 973 l3 -918 135 -2 c74 -2 154 0 178 3 l42 5 0 312 c0 172 3
329 6 349 l7 38 349 0 c270 0 350 -3 353 -12 2 -7 5 -166 7 -353 l3 -340 180
0 180 0 0 915 0 915 -180 0 -180 0 -3 -392 -2 -393 -354 0 -353 0 -7 31 c-3
17 -6 195 -6 395 l0 364 -180 0 -180 0 2 -917z"/>
<path d="M4810 1743 c-58 -19 -132 -44 -165 -56 l-60 -23 -3 -459 c-2 -273 1
-492 7 -538 40 -305 250 -543 540 -616 47 -12 104 -21 127 -21 l41 0 7 46 c3
26 6 102 6 169 l0 122 -61 12 c-132 26 -221 93 -280 207 l-34 68 0 190 0 191
188 3 188 2 -3 158 -3 157 -187 3 -188 2 0 210 c0 116 -3 210 -7 209 -5 -1
-55 -17 -113 -36z"/>
<path d="M5995 1370 c-142 -37 -260 -106 -363 -212 -74 -76 -90 -98 -142 -199
-71 -139 -73 -152 -77 -552 l-5 -357 174 2 173 3 5 340 5 340 33 67 c61 124
193 222 315 235 l57 6 0 173 0 174 -52 -1 c-29 0 -84 -8 -123 -19z"/>
<path d="M2248 1355 c-189 -32 -372 -176 -459 -360 -108 -228 -87 -467 59
-683 241 -353 813 -364 1069 -19 156 211 186 462 80 689 -135 290 -415 429
-749 373z m268 -360 c68 -30 129 -87 162 -149 23 -44 27 -63 27 -141 0 -79 -4
-97 -28 -142 -61 -116 -161 -178 -287 -177 -133 1 -227 59 -286 179 -35 70
-36 78 -32 152 6 91 35 157 95 214 99 95 229 119 349 64z"/>
<path d="M3198 1063 c-2 -170 -2 -467 0 -661 l2 -352 170 0 170 0 0 344 c0
189 5 368 10 397 21 110 108 187 222 196 55 4 70 1 118 -24 61 -31 113 -92
130 -151 6 -22 10 -181 10 -399 l0 -363 175 0 175 0 0 365 c0 414 -6 470 -67
594 -26 54 -57 96 -112 151 -82 83 -155 125 -267 154 -80 21 -223 21 -299 0
-89 -24 -90 -24 -93 19 l-3 37 -169 0 -169 0 -3 -307z"/>
<path d="M6665 1355 c-238 -40 -444 -244 -505 -497 -46 -191 -10 -371 108
-546 235 -345 786 -365 1053 -38 63 77 125 203 144 292 57 267 -62 553 -290
699 -82 52 -131 72 -226 90 -96 18 -175 18 -284 0z m271 -360 c68 -30 129 -87
162 -149 23 -44 27 -63 27 -141 0 -73 -5 -99 -23 -136 -49 -99 -152 -173 -259
-186 -111 -13 -241 50 -301 145 -43 69 -55 115 -50 196 15 224 241 362 444
271z"/>
<path d="M9867 1308 c-2 -29 -3 -215 -2 -413 2 -394 4 -411 66 -544 39 -85
158 -203 249 -248 102 -51 177 -66 300 -60 128 6 203 30 306 99 80 53 147 130
190 217 58 119 58 112 62 574 l3 427 -175 0 -175 0 -3 -402 c-3 -391 -4 -404
-25 -443 -46 -87 -117 -129 -215 -128 -77 0 -139 30 -184 88 -51 67 -54 97
-54 507 l0 378 -169 0 -169 0 -5 -52z"/>
</g>
</svg>
